<?xml version="1.0" encoding="UTF-8" standalone="no"?>
<!-- Created with Inkscape (http://www.inkscape.org/) -->

<svg
   xmlns:dc="http://purl.org/dc/elements/1.1/"
   xmlns:cc="http://creativecommons.org/ns#"
   xmlns:rdf="http://www.w3.org/1999/02/22-rdf-syntax-ns#"
   xmlns:svg="http://www.w3.org/2000/svg"
   xmlns="http://www.w3.org/2000/svg"
   xmlns:xlink="http://www.w3.org/1999/xlink"
   xmlns:sodipodi="http://sodipodi.sourceforge.net/DTD/sodipodi-0.dtd"
   xmlns:inkscape="http://www.inkscape.org/namespaces/inkscape"
   width="217.02798"
   height="61.326664"
   id="svg2"
   version="1.1"
   inkscape:version="0.48.3.1 r9886"
   sodipodi:docname="logo.svg">
  <defs
     id="defs4">
    <inkscape:perspective
       sodipodi:type="inkscape:persp3d"
       inkscape:vp_x="229.30463 : 608.00345 : 1"
       inkscape:vp_y="0 : 1000 : 0"
       inkscape:vp_z="744.09448 : 526.18109 : 1"
       inkscape:persp3d-origin="372.04724 : 350.78739 : 1"
       id="perspective3777" />
  </defs>
  <sodipodi:namedview
     id="base"
     pagecolor="#ffffff"
     bordercolor="#666666"
     borderopacity="1.0"
     inkscape:pageopacity="0.0"
     inkscape:pageshadow="2"
     inkscape:zoom="1.4"
     inkscape:cx="81.464885"
     inkscape:cy="47.694373"
     inkscape:document-units="px"
     inkscape:current-layer="layer1"
     showgrid="false"
     inkscape:window-width="1280"
     inkscape:window-height="751"
     inkscape:window-x="0"
     inkscape:window-y="25"
     inkscape:window-maximized="1"
     fit-margin-top="0"
     fit-margin-left="0"
     fit-margin-right="0"
     fit-margin-bottom="0" />
  <metadata
     id="metadata7">
    <rdf:RDF>
      <cc:Work
         rdf:about="">
        <dc:format>image/svg+xml</dc:format>
        <dc:type
           rdf:resource="http://purl.org/dc/dcmitype/StillImage" />
        <dc:title />
      </cc:Work>
    </rdf:RDF>
  </metadata>
  <g
     inkscape:label="Ebene 1"
     inkscape:groupmode="layer"
     id="layer1"
     transform="translate(13.384965,-659.7455)">
    <text
       xml:space="preserve"
       style="font-size:40px;font-style:normal;font-variant:normal;font-weight:normal;font-stretch:normal;text-align:start;line-height:125%;letter-spacing:0px;word-spacing:0px;writing-mode:lr-tb;text-anchor:start;fill:#000000;fill-opacity:1;stroke:none;font-family:Sloe Gin Rickey;-inkscape-font-specification:Sloe Gin Rickey"
       x="69.700523"
       y="721.03217"
       id="text3793"
       sodipodi:linespacing="125%"><tspan
         sodipodi:role="line"
         id="tspan3795"
         x="69.700523"
         y="721.03217"
         style="font-size:40px;font-style:normal;font-variant:normal;font-weight:normal;font-stretch:normal;text-align:start;line-height:125%;writing-mode:lr-tb;text-anchor:start;font-family:Sloe Gin Rickey;-inkscape-font-specification:Sloe Gin Rickey"><tspan
   style="fill:#333333"
   id="tspan3528">dia</tspan>Grabber</tspan></text>
    <g
       id="g4411"
       transform="matrix(0.52901075,0.44603802,-0.44603802,0.52901075,372.61009,173.30975)">
      <g
         id="text3797"
         style="font-size:40px;font-style:normal;font-weight:normal;line-height:125%;letter-spacing:0px;word-spacing:0px;fill:#000000;fill-opacity:1;stroke:none;font-family:Sans">
        <path
           inkscape:connector-curvature="0"
           id="path4107"
           style="font-variant:normal;font-stretch:normal;font-family:Sloe Gin Rickey;-inkscape-font-specification:Sloe Gin Rickey"
           d="m 95.932301,875.19734 c -1.412309,-0.56195 -1.852209,-1.51197 -1.319758,-2.84991 0.207072,-0.52033 0.555194,-1.07059 1.044422,-1.65083 2.263262,-2.65817 3.612464,-4.17339 4.04759,-4.54554 1.641585,-1.38445 3.267625,-1.75625 4.878135,-1.11534 1.41224,0.56204 1.85217,1.512 1.31974,2.84991 -0.20707,0.52036 -0.55522,1.07063 -1.04442,1.65084 -2.27316,2.68302 -3.62235,4.19819 -4.04759,4.54553 -1.641608,1.38449 -3.26765,1.75628 -4.878119,1.11534 m 7.125479,-7.19527 c 0.1873,-0.47071 0.10759,-0.77514 -0.23931,-0.91315 -0.56991,-0.22669 -1.23038,0.0987 -1.98151,0.9765 -2.16444,2.55404 -3.295964,3.95498 -3.394542,4.20269 -0.17753,0.446 -0.105186,0.73305 0.216922,0.86127 0.594713,0.23635 1.262588,-0.0716 2.003882,-0.92457 2.174288,-2.5788 3.305798,-3.97972 3.394558,-4.20274" />
      </g>
      <g
         id="text3801"
         style="font-size:40px;font-style:normal;font-weight:normal;line-height:125%;letter-spacing:0px;word-spacing:0px;fill:#000000;fill-opacity:1;stroke:none;font-family:Sans">
        <path
           inkscape:connector-curvature="0"
           id="path4104"
           style="font-variant:normal;font-stretch:normal;font-family:Sloe Gin Rickey;-inkscape-font-specification:Sloe Gin Rickey"
           d="m 133.09088,871.81796 -7.16764,11.00086 -2.32428,-0.59812 4.87249,-7.37854 -2.43846,0.48769 1.58874,-2.48238 5.46915,-1.02956" />
      </g>
      <use
         transform="matrix(0.96151229,0.27476196,-0.27476196,0.96151229,271.28696,-35.666461)"
         height="1052.3622"
         width="744.09448"
         y="0"
         x="0"
         xlink:href="#text3801"
         id="use3809" />
      <use
         transform="matrix(0.93792615,0.34683503,-0.34683503,0.93792615,312.88239,59.011996)"
         height="1052.3622"
         width="744.09448"
         y="0"
         x="0"
         xlink:href="#text3797"
         id="use3811" />
      <use
         transform="matrix(0.97483461,0.22292925,-0.22292925,0.97483461,203.21971,26.539668)"
         height="1052.3622"
         width="744.09448"
         y="0"
         x="0"
         xlink:href="#text3801"
         id="use3813" />
      <use
         transform="matrix(0.94786191,0.31868141,-0.31868141,0.94786191,330.86415,-10.120264)"
         height="1052.3622"
         width="744.09448"
         y="0"
         x="0"
         xlink:href="#text3797"
         id="use3815" />
      <use
         transform="matrix(0.93727119,0.34860118,-0.34860118,0.93727119,326.47368,-14.666618)"
         height="1052.3622"
         width="744.09448"
         y="0"
         x="0"
         xlink:href="#text3801"
         id="use3817" />
      <use
         transform="matrix(0.95885679,0.28389024,-0.28389024,0.95885679,252.50018,19.348156)"
         height="1052.3622"
         width="744.09448"
         y="0"
         x="0"
         xlink:href="#text3801"
         id="use3819" />
      <use
         transform="matrix(0.95098219,0.30924585,-0.30924585,0.95098219,323.27242,-11.220101)"
         height="1052.3622"
         width="744.09448"
         y="0"
         x="0"
         xlink:href="#text3797"
         id="use3821" />
      <use
         transform="matrix(0.92181598,0.38762779,-0.38762779,0.92181598,360.15903,26.424561)"
         height="1052.3622"
         width="744.09448"
         y="0"
         x="0"
         xlink:href="#text3797"
         id="use3823" />
      <use
         transform="matrix(0.95735632,0.28890986,-0.28890986,0.95735632,281.54765,-25.415456)"
         height="1052.3622"
         width="744.09448"
         y="0"
         x="0"
         xlink:href="#text3801"
         id="use3825" />
      <use
         transform="matrix(0.97235148,0.23352221,-0.23352221,0.97235148,201.60034,33.610296)"
         height="1052.3622"
         width="744.09448"
         y="0"
         x="0"
         xlink:href="#text3801"
         id="use3827" />
      <use
         transform="matrix(0.94113303,0.33803644,-0.33803644,0.94113303,334.48538,25.221758)"
         height="1052.3622"
         width="744.09448"
         y="0"
         x="0"
         xlink:href="#text3797"
         id="use3829" />
      <use
         transform="matrix(0.92441336,0.38139223,-0.38139223,0.92441336,370.04659,16.150945)"
         height="1052.3622"
         width="744.09448"
         y="0"
         x="0"
         xlink:href="#text3797"
         id="use3831" />
      <use
         transform="matrix(0.97314256,0.2302033,-0.2302033,0.97314256,227.52108,1.4293313)"
         height="1052.3622"
         width="744.09448"
         y="0"
         x="0"
         xlink:href="#text3801"
         id="use3833" />
      <use
         transform="matrix(0.92899932,0.37008139,-0.37008139,0.92899932,338.73132,44.791643)"
         height="1052.3622"
         width="744.09448"
         y="0"
         x="0"
         xlink:href="#text3797"
         id="use3835" />
      <use
         transform="matrix(0.96074284,0.27744029,-0.27744029,0.96074284,296.69449,-17.912352)"
         height="1052.3622"
         width="744.09448"
         y="0"
         x="0"
         xlink:href="#text3797"
         id="use3837" />
      <use
         transform="matrix(0.96726487,0.25376898,-0.25376898,0.96726487,252.17205,-15.061435)"
         height="1052.3622"
         width="744.09448"
         y="0"
         x="0"
         xlink:href="#text3801"
         id="use3839" />
      <use
         transform="matrix(0.93725331,0.34864917,-0.34864917,0.93725331,305.07087,13.035384)"
         height="1052.3622"
         width="744.09448"
         y="0"
         x="0"
         xlink:href="#text3801"
         id="use3841" />
      <use
         transform="matrix(0.96340939,0.26803431,-0.26803431,0.96340939,282.32667,26.840106)"
         height="1052.3622"
         width="744.09448"
         y="0"
         x="0"
         xlink:href="#text3797"
         id="use3843" />
      <use
         transform="matrix(0.97016761,0.24243515,-0.24243515,0.97016761,244.86025,-21.844855)"
         height="1052.3622"
         width="744.09448"
         y="0"
         x="0"
         xlink:href="#text3801"
         id="use3845" />
      <use
         transform="matrix(0.95307109,0.30274668,-0.30274668,0.95307109,317.83595,-4.63641)"
         height="1052.3622"
         width="744.09448"
         y="0"
         x="0"
         xlink:href="#text3797"
         id="use3847" />
      <use
         transform="matrix(0.94472545,0.32786252,-0.32786252,0.94472545,296.27594,6.1628202)"
         height="1052.3622"
         width="744.09448"
         y="0"
         x="0"
         xlink:href="#text3801"
         id="use3849" />
      <use
         transform="matrix(0.92832561,0.37176809,-0.37176809,0.92832561,338.71452,44.904075)"
         height="1052.3622"
         width="744.09448"
         y="0"
         x="0"
         xlink:href="#text3797"
         id="use3851" />
      <use
         transform="matrix(0.94717773,0.32070918,-0.32070918,0.94717773,330.14691,-39.434237)"
         height="1052.3622"
         width="744.09448"
         y="0"
         x="0"
         xlink:href="#text3801"
         id="use3853" />
      <use
         transform="matrix(0.96831945,0.24971475,-0.24971475,0.96831945,250.51985,-38.296518)"
         height="1052.3622"
         width="744.09448"
         y="0"
         x="0"
         xlink:href="#text3801"
         id="use3855" />
      <use
         transform="matrix(0.94286467,0.33317591,-0.33317591,0.94286467,339.84779,7.3184339)"
         height="1052.3622"
         width="744.09448"
         y="0"
         x="0"
         xlink:href="#text3797"
         id="use3857" />
      <use
         transform="matrix(0.96655654,0.25645354,-0.25645354,0.96655654,256.05384,-30.740322)"
         height="1052.3622"
         width="744.09448"
         y="0"
         x="0"
         xlink:href="#text3801"
         id="use3859" />
      <use
         transform="matrix(0.95771222,0.28772771,-0.28772771,0.95771222,300.37959,-39.546519)"
         height="1052.3622"
         width="744.09448"
         y="0"
         x="0"
         xlink:href="#text3801"
         id="use3861" />
      <use
         transform="matrix(0.98297673,0.18373029,-0.18373029,0.98297673,256.89945,-43.006291)"
         height="1052.3622"
         width="744.09448"
         y="0"
         x="0"
         xlink:href="#text3797"
         id="use3863" />
      <use
         transform="matrix(0.96184718,0.27358726,-0.27358726,0.96184718,294.60612,-47.320407)"
         height="1052.3622"
         width="744.09448"
         y="0"
         x="0"
         xlink:href="#text3801"
         id="use3865" />
      <use
         transform="matrix(0.97470171,0.22350973,-0.22350973,0.97470171,225.45177,-2.7370613)"
         height="1052.3622"
         width="744.09448"
         y="0"
         x="0"
         xlink:href="#text3801"
         id="use3867" />
      <use
         transform="matrix(0.94544475,0.3257825,-0.3257825,0.94544475,386.36166,-29.803034)"
         height="1052.3622"
         width="744.09448"
         y="0"
         x="0"
         xlink:href="#text3797"
         id="use3869" />
      <use
         transform="matrix(0.98528726,0.17090633,-0.17090633,0.98528726,179.47097,-52.206333)"
         height="1052.3622"
         width="744.09448"
         y="0"
         x="0"
         xlink:href="#text3801"
         id="use3871" />
      <use
         transform="matrix(0.98347816,0.18102677,-0.18102677,0.98347816,259.19828,-47.257287)"
         height="1052.3622"
         width="744.09448"
         y="0"
         x="0"
         xlink:href="#text3797"
         id="use3873" />
      <use
         transform="matrix(0.98273436,0.18502215,-0.18502215,0.98273436,193.90498,-0.8504683)"
         height="1052.3622"
         width="744.09448"
         y="0"
         x="0"
         xlink:href="#text3801"
         id="use3875" />
      <use
         transform="matrix(0.97832999,0.20705169,-0.20705169,0.97832999,267.37137,-43.837174)"
         height="1052.3622"
         width="744.09448"
         y="0"
         x="0"
         xlink:href="#text3797"
         id="use3877" />
      <use
         transform="matrix(0.97237548,0.2334221,-0.2334221,0.97237548,233.83742,-5.7177771)"
         height="1052.3622"
         width="744.09448"
         y="0"
         x="0"
         xlink:href="#text3801"
         id="use3879" />
      <use
         transform="matrix(0.98245134,0.18651899,-0.18651899,0.98245134,227.75967,-42.678416)"
         height="1052.3622"
         width="744.09448"
         y="0"
         x="0"
         xlink:href="#text3797"
         id="use3881" />
      <use
         transform="matrix(0.98415656,0.17730163,-0.17730163,0.98415656,196.66494,-0.6570325)"
         height="1052.3622"
         width="744.09448"
         y="0"
         x="0"
         xlink:href="#text3801"
         id="use3883" />
      <use
         transform="matrix(0.97121864,0.23818967,-0.23818967,0.97121864,260.80936,29.438907)"
         height="1052.3622"
         width="744.09448"
         y="0"
         x="0"
         xlink:href="#text3797"
         id="use3885" />
      <use
         transform="matrix(0.95347492,0.30147237,-0.30147237,0.95347492,286.31232,-9.0835823)"
         height="1052.3622"
         width="744.09448"
         y="0"
         x="0"
         xlink:href="#text3801"
         id="use3887" />
      <use
         transform="matrix(0.98404403,0.1779251,-0.1779251,0.98404403,220.02361,-30.037592)"
         height="1052.3622"
         width="744.09448"
         y="0"
         x="0"
         xlink:href="#text3797"
         id="use3889" />
      <use
         transform="matrix(0.94485747,0.32748191,-0.32748191,0.94485747,300.91272,-0.27286912)"
         height="1052.3622"
         width="744.09448"
         y="0"
         x="0"
         xlink:href="#text3801"
         id="use3891" />
      <use
         transform="matrix(0.96737472,0.25334986,-0.25334986,0.96737472,215.72388,32.413012)"
         height="1052.3622"
         width="744.09448"
         y="0"
         x="0"
         xlink:href="#text3801"
         id="use3895" />
      <use
         transform="matrix(0.98661669,0.16305671,-0.16305671,0.98661669,155.25222,3.2226265)"
         height="1052.3622"
         width="744.09448"
         y="0"
         x="0"
         xlink:href="#text3801"
         id="use3897" />
      <use
         transform="matrix(0.97903174,0.20370781,-0.20370781,0.97903174,243.74251,14.652683)"
         height="1052.3622"
         width="744.09448"
         y="0"
         x="0"
         xlink:href="#text3797"
         id="use3899" />
      <use
         transform="matrix(0.9838641,0.17891745,-0.17891745,0.9838641,195.92934,2.2303194)"
         height="1052.3622"
         width="744.09448"
         y="0"
         x="0"
         xlink:href="#text3801"
         id="use3903" />
      <use
         transform="matrix(0.96087708,0.27697509,-0.27697509,0.96087708,279.3111,46.993534)"
         height="1052.3622"
         width="744.09448"
         y="0"
         x="0"
         xlink:href="#text3797"
         id="use3907" />
      <use
         transform="matrix(0.97964952,0.20071585,-0.20071585,0.97964952,209.46827,-32.785744)"
         height="1052.3622"
         width="744.09448"
         y="0"
         x="0"
         xlink:href="#text3801"
         id="use3909" />
      <use
         transform="matrix(0.97330078,0.22953335,-0.22953335,0.97330078,228.77863,-1.3963874)"
         height="1052.3622"
         width="744.09448"
         y="0"
         x="0"
         xlink:href="#text3801"
         id="use3911" />
      <use
         transform="matrix(0.95442866,0.29843918,-0.29843918,0.95442866,311.34153,11.795446)"
         height="1052.3622"
         width="744.09448"
         y="0"
         x="0"
         xlink:href="#text3797"
         id="use3913" />
      <use
         transform="matrix(0.96996487,0.2432452,-0.2432452,0.96996487,163.4311,32.114482)"
         height="1052.3622"
         width="744.09448"
         y="0"
         x="0"
         xlink:href="#text3801"
         id="use3919" />
      <use
         transform="matrix(0.98000719,0.19896192,-0.19896192,0.98000719,149.92367,41.629723)"
         height="1052.3622"
         width="744.09448"
         y="0"
         x="0"
         xlink:href="#text3801"
         id="use3921" />
      <use
         transform="matrix(0.93742645,0.34818329,-0.34818329,0.93742645,306.8572,57.452101)"
         height="1052.3622"
         width="744.09448"
         y="0"
         x="0"
         xlink:href="#text3797"
         id="use3923" />
      <use
         transform="matrix(0.92859535,0.37109382,-0.37109382,0.92859535,366.00002,12.996103)"
         height="1052.3622"
         width="744.09448"
         y="0"
         x="0"
         xlink:href="#text3797"
         id="use3925" />
      <use
         transform="matrix(0.92884143,0.37047747,-0.37047747,0.92884143,316.47241,12.043462)"
         height="1052.3622"
         width="744.09448"
         y="0"
         x="0"
         xlink:href="#text3801"
         id="use3927" />
      <use
         transform="matrix(0.93901608,0.34387327,-0.34387327,0.93901608,266.9389,51.779253)"
         height="1052.3622"
         width="744.09448"
         y="0"
         x="0"
         xlink:href="#text3797"
         id="use3929" />
      <use
         transform="matrix(0.92470566,0.38068285,-0.38068285,0.92470566,336.65674,35.832228)"
         height="1052.3622"
         width="744.09448"
         y="0"
         x="0"
         xlink:href="#text3797"
         id="use3931" />
      <use
         transform="matrix(0.92759285,0.37359273,-0.37359273,0.92759285,329.37879,39.621451)"
         height="1052.3622"
         width="744.09448"
         y="0"
         x="0"
         xlink:href="#text3797"
         id="use3933" />
      <use
         transform="matrix(0.96503675,0.26211465,-0.26211465,0.96503675,215.48914,34.21078)"
         height="1052.3622"
         width="744.09448"
         y="0"
         x="0"
         xlink:href="#text3801"
         id="use3935" />
      <use
         transform="matrix(0.99065351,0.13640234,-0.13640234,0.99065351,74.094661,46.784124)"
         height="1052.3622"
         width="744.09448"
         y="0"
         x="0"
         xlink:href="#text3801"
         id="use3937" />
      <use
         transform="matrix(0.93888431,0.34423283,-0.34423283,0.93888431,254.23302,61.625172)"
         height="1052.3622"
         width="744.09448"
         y="0"
         x="0"
         xlink:href="#text3797"
         id="use3939" />
      <use
         transform="matrix(0.95922056,0.28265872,-0.28265872,0.95922056,225.62773,32.935443)"
         height="1052.3622"
         width="744.09448"
         y="0"
         x="0"
         xlink:href="#text3801"
         id="use3941" />
      <use
         transform="matrix(0.9387009,0.3447327,-0.3447327,0.9387009,284.02356,46.052036)"
         height="1052.3622"
         width="744.09448"
         y="0"
         x="0"
         xlink:href="#text3797"
         id="use3943" />
      <use
         transform="matrix(0.96548944,0.26044215,-0.26044215,0.96548944,161.01574,30.36356)"
         height="1052.3622"
         width="744.09448"
         y="0"
         x="0"
         xlink:href="#text3801"
         id="use3945" />
      <use
         transform="matrix(0.96200449,0.27303366,-0.27303366,0.96200449,177.80745,28.018531)"
         height="1052.3622"
         width="744.09448"
         y="0"
         x="0"
         xlink:href="#text3801"
         id="use3949" />
      <use
         transform="matrix(0.97473821,0.22335044,-0.22335044,0.97473821,140.77111,33.26014)"
         height="1052.3622"
         width="744.09448"
         y="0"
         x="0"
         xlink:href="#text3801"
         id="use3953" />
      <use
         transform="matrix(0.98537124,0.17042181,-0.17042181,0.98537124,95.896254,40.172676)"
         height="1052.3622"
         width="744.09448"
         y="0"
         x="0"
         xlink:href="#text3801"
         id="use3955" />
      <use
         transform="matrix(0.99728298,0.07366567,-0.07366567,0.99728298,14.799435,59.564732)"
         height="1052.3622"
         width="744.09448"
         y="0"
         x="0"
         xlink:href="#text3801"
         id="use3957" />
      <use
         transform="matrix(0.95748391,0.28848665,-0.28848665,0.95748391,248.83776,65.848359)"
         height="1052.3622"
         width="744.09448"
         y="0"
         x="0"
         xlink:href="#text3797"
         id="use3959" />
      <use
         transform="matrix(0.96917774,0.24636254,-0.24636254,0.96917774,180.97144,35.619305)"
         height="1052.3622"
         width="744.09448"
         y="0"
         x="0"
         xlink:href="#text3801"
         id="use3961" />
      <use
         transform="matrix(0.95876592,0.28419688,-0.28419688,0.95876592,248.60369,67.006624)"
         height="1052.3622"
         width="744.09448"
         y="0"
         x="0"
         xlink:href="#text3797"
         id="use3963" />
      <use
         transform="matrix(0.98600634,0.16670798,-0.16670798,0.98600634,118.99378,45.378065)"
         height="1052.3622"
         width="744.09448"
         y="0"
         x="0"
         xlink:href="#text3801"
         id="use3965" />
      <use
         transform="matrix(0.97838101,0.20681051,-0.20681051,0.97838101,134.19063,37.083551)"
         height="1052.3622"
         width="744.09448"
         y="0"
         x="0"
         xlink:href="#text3801"
         id="use3969" />
      <use
         transform="matrix(0.97638071,0.21605711,-0.21605711,0.97638071,178.43783,67.635241)"
         height="1052.3622"
         width="744.09448"
         y="0"
         x="0"
         xlink:href="#text3797"
         id="use3971" />
      <use
         transform="matrix(0.98304735,0.18335182,-0.18335182,0.98304735,152.00235,70.195773)"
         height="1052.3622"
         width="744.09448"
         y="0"
         x="0"
         xlink:href="#text3797"
         id="use3983" />
      <use
         transform="matrix(0.99047309,0.13770634,-0.13770634,0.99047309,93.931146,50.075114)"
         height="1052.3622"
         width="744.09448"
         y="0"
         x="0"
         xlink:href="#text3801"
         id="use3993" />
      <use
         transform="matrix(0.98452023,0.17527094,-0.17527094,0.98452023,140.19916,44.835782)"
         height="1052.3622"
         width="744.09448"
         y="0"
         x="0"
         xlink:href="#text3801"
         id="use3997" />
      <use
         transform="matrix(0.96673823,0.25576783,-0.25576783,0.96673823,209.44344,35.047229)"
         height="1052.3622"
         width="744.09448"
         y="0"
         x="0"
         xlink:href="#text3801"
         id="use4015" />
      <use
         transform="matrix(0.98143824,0.19177849,-0.19177849,0.98143824,169.07122,39.041996)"
         height="1052.3622"
         width="744.09448"
         y="0"
         x="0"
         xlink:href="#text3801"
         id="use4017" />
      <use
         transform="matrix(0.9375863,0.34775269,-0.34775269,0.9375863,303.49804,14.043106)"
         height="1052.3622"
         width="744.09448"
         y="0"
         x="0"
         xlink:href="#text3801"
         id="use4021" />
      <use
         transform="matrix(0.97056955,0.24082111,-0.24082111,0.97056955,190.89785,63.535277)"
         height="1052.3622"
         width="744.09448"
         y="0"
         x="0"
         xlink:href="#text3797"
         id="use4023" />
      <use
         transform="matrix(0.94889227,0.31560013,-0.31560013,0.94889227,230.01074,20.855363)"
         height="1052.3622"
         width="744.09448"
         y="0"
         x="0"
         xlink:href="#text3801"
         id="use4025" />
      <use
         transform="matrix(0.93053339,0.36620708,-0.36620708,0.93053339,256.68572,16.111598)"
         height="1052.3622"
         width="744.09448"
         y="0"
         x="0"
         xlink:href="#text3801"
         id="use4027" />
      <use
         transform="matrix(0.9547354,0.29745642,-0.29745642,0.9547354,247.86943,60.849836)"
         height="1052.3622"
         width="744.09448"
         y="0"
         x="0"
         xlink:href="#text3797"
         id="use4029" />
      <use
         transform="matrix(0.9513594,0.30808315,-0.30808315,0.9513594,227.40746,23.143487)"
         height="1052.3622"
         width="744.09448"
         y="0"
         x="0"
         xlink:href="#text3801"
         id="use4031" />
      <use
         transform="matrix(0.93947702,0.34261198,-0.34261198,0.93947702,305.714,60.36063)"
         height="1052.3622"
         width="744.09448"
         y="0"
         x="0"
         xlink:href="#text3797"
         id="use4033" />
      <use
         transform="matrix(0.91279282,0.4084229,-0.4084229,0.91279282,359.00095,36.853703)"
         height="1052.3622"
         width="744.09448"
         y="0"
         x="0"
         xlink:href="#text3797"
         id="use4035" />
      <use
         transform="matrix(0.92360108,0.38335504,-0.38335504,0.92360108,318.33756,41.639729)"
         height="1052.3622"
         width="744.09448"
         y="0"
         x="0"
         xlink:href="#text3797"
         id="use4037" />
      <use
         transform="matrix(0.9014093,0.432968,-0.432968,0.9014093,385.53377,6.772384)"
         height="1052.3622"
         width="744.09448"
         y="0"
         x="0"
         xlink:href="#text3801"
         id="use4039" />
      <use
         transform="matrix(0.91504359,0.40335498,-0.40335498,0.91504359,323.0492,46.648788)"
         height="1052.3622"
         width="744.09448"
         y="0"
         x="0"
         xlink:href="#text3797"
         id="use4041" />
      <use
         transform="matrix(0.9256969,0.37826611,-0.37826611,0.9256969,270.94903,13.908976)"
         height="1052.3622"
         width="744.09448"
         y="0"
         x="0"
         xlink:href="#text3801"
         id="use4043" />
      <use
         transform="matrix(0.89209654,0.45184489,-0.45184489,0.89209654,385.00298,7.5066967)"
         height="1052.3622"
         width="744.09448"
         y="0"
         x="0"
         xlink:href="#text3801"
         id="use4045" />
      <use
         transform="matrix(0.88339106,0.46863667,-0.46863667,0.88339106,417.31124,45.255977)"
         height="1052.3622"
         width="744.09448"
         y="0"
         x="0"
         xlink:href="#text3797"
         id="use4047" />
      <use
         transform="matrix(0.92950477,0.36880999,-0.36880999,0.92950477,278.64062,10.363968)"
         height="1052.3622"
         width="744.09448"
         y="0"
         x="0"
         xlink:href="#text3801"
         id="use4049" />
      <use
         transform="matrix(0.86226559,0.5064563,-0.5064563,0.86226559,446.15969,95.874295)"
         height="1052.3622"
         width="744.09448"
         y="0"
         x="0"
         xlink:href="#text3797"
         id="use4051" />
      <use
         transform="matrix(0.92350448,0.38358761,-0.38358761,0.92350448,409.16352,-34.775244)"
         height="1052.3622"
         width="744.09448"
         y="0"
         x="0"
         xlink:href="#text3801"
         id="use4053" />
      <use
         transform="matrix(0.87338541,0.48702969,-0.48702969,0.87338541,421.42665,75.372158)"
         height="1052.3622"
         width="744.09448"
         y="0"
         x="0"
         xlink:href="#text3797"
         id="use4055" />
      <use
         transform="matrix(0.93071384,0.36574816,-0.36574816,0.93071384,286.28645,8.4233915)"
         height="1052.3622"
         width="744.09448"
         y="0"
         x="0"
         xlink:href="#text3801"
         id="use4057" />
      <use
         transform="matrix(0.87415364,0.48564945,-0.48564945,0.87415364,419.68723,54.23348)"
         height="1052.3622"
         width="744.09448"
         y="0"
         x="0"
         xlink:href="#text3797"
         id="use4059" />
      <use
         transform="matrix(0.86257367,0.50593147,-0.50593147,0.86257367,472.18462,60.70856)"
         height="1052.3622"
         width="744.09448"
         y="0"
         x="0"
         xlink:href="#text3797"
         id="use4061" />
      <use
         transform="matrix(0.86966569,0.49364115,-0.49364115,0.86966569,419.90001,54.750373)"
         height="1052.3622"
         width="744.09448"
         y="0"
         x="0"
         xlink:href="#text3801"
         id="use4063" />
      <use
         transform="matrix(0.8642481,0.50306581,-0.50306581,0.8642481,470.86471,89.503437)"
         height="1052.3622"
         width="744.09448"
         y="0"
         x="0"
         xlink:href="#text3797"
         id="use4065" />
      <use
         transform="matrix(0.90344508,0.4287039,-0.4287039,0.90344508,352.25679,8.7177892)"
         height="1052.3622"
         width="744.09448"
         y="0"
         x="0"
         xlink:href="#text3801"
         id="use4067" />
      <use
         transform="matrix(0.82639843,0.42502586,-0.42502586,0.82639843,425.54588,64.291755)"
         height="1052.3622"
         width="744.09448"
         y="0"
         x="0"
         xlink:href="#text3801"
         id="use4069" />
      <use
         transform="matrix(0.89711904,0.44178895,-0.44178895,0.89711904,356.24348,50.195822)"
         height="1052.3622"
         width="744.09448"
         y="0"
         x="0"
         xlink:href="#text3797"
         id="use4071" />
      <use
         transform="matrix(0.86822294,0.49617436,-0.49617436,0.86822294,456.15161,26.646797)"
         height="1052.3622"
         width="744.09448"
         y="0"
         x="0"
         xlink:href="#text3801"
         id="use4073" />
      <use
         transform="matrix(0.91561445,0.40205734,-0.40205734,0.91561445,371.41241,14.68797)"
         height="1052.3622"
         width="744.09448"
         y="0"
         x="0"
         xlink:href="#text3797"
         id="use4075" />
      <use
         transform="matrix(0.92641507,0.37650384,-0.37650384,0.92641507,299.03004,6.9284319)"
         height="1052.3622"
         width="744.09448"
         y="0"
         x="0"
         xlink:href="#text3801"
         id="use4077" />
      <use
         transform="matrix(0.88513837,0.46532789,-0.46532789,0.88513837,496.60912,9.2158711)"
         height="1052.3622"
         width="744.09448"
         y="0"
         x="0"
         xlink:href="#text3797"
         id="use4079" />
      <use
         transform="matrix(0.90501247,0.42538503,-0.42538503,0.90501247,390.67422,-8.0762271)"
         height="1052.3622"
         width="744.09448"
         y="0"
         x="0"
         xlink:href="#text3801"
         id="use4081" />
      <use
         transform="matrix(0.87280582,0.48806761,-0.48806761,0.87280582,433.33379,46.298147)"
         height="1052.3622"
         width="744.09448"
         y="0"
         x="0"
         xlink:href="#text3797"
         id="use4083" />
      <use
         transform="matrix(0.94489768,0.32736577,-0.32736577,0.94489768,314.53136,-31.920673)"
         height="1052.3622"
         width="744.09448"
         y="0"
         x="0"
         xlink:href="#text3801"
         id="use4085" />
      <use
         transform="matrix(0.92721266,0.37453526,-0.37453526,0.92721266,393.77311,-8.0741243)"
         height="1052.3622"
         width="744.09448"
         y="0"
         x="0"
         xlink:href="#text3797"
         id="use4087" />
      <use
         transform="matrix(0.95597778,0.29343902,-0.29343902,0.95597778,260.50043,-26.984892)"
         height="1052.3622"
         width="744.09448"
         y="0"
         x="0"
         xlink:href="#text3801"
         id="use4089" />
      <use
         transform="matrix(0.9399564,0.34129462,-0.34129462,0.9399564,395.30509,-23.65682)"
         height="1052.3622"
         width="744.09448"
         y="0"
         x="0"
         xlink:href="#text3797"
         id="use4091" />
      <use
         transform="matrix(0.90999827,0.41461204,-0.41461204,0.90999827,405.0516,10.401292)"
         height="1052.3622"
         width="744.09448"
         y="0"
         x="0"
         xlink:href="#text3797"
         id="use4093" />
      <use
         transform="matrix(0.9807328,0.19535412,-0.19535412,0.9807328,199.98424,-51.743768)"
         height="1052.3622"
         width="744.09448"
         y="0"
         x="0"
         xlink:href="#text3801"
         id="use4095" />
      <use
         transform="matrix(0.96234195,0.27184178,-0.27184178,0.96234195,327.81835,-40.088202)"
         height="1052.3622"
         width="744.09448"
         y="0"
         x="0"
         xlink:href="#text3797"
         id="use4097" />
      <use
         transform="matrix(0.98442175,0.17582344,-0.17582344,0.98442175,193.48057,-51.868182)"
         height="1052.3622"
         width="744.09448"
         y="0"
         x="0"
         xlink:href="#text3801"
         id="use4099" />
      <use
         transform="matrix(0.93407237,0.35708373,-0.35708373,0.93407237,398.37343,-15.77562)"
         height="1052.3622"
         width="744.09448"
         y="0"
         x="0"
         xlink:href="#text3797"
         id="use4101" />
    </g>
  </g>
</svg>
